Fly_normalized_Motion_pl10
version=1
nRows=10
nColumns=43
inDegrees=yes
endheader
time		pelvis_tilt		pelvis_list		pelvis_rotation		pelvis_tx		pelvis_ty		pelvis_tz		hip_flexion_r		hip_adduction_r		hip_rotation_r		knee_angle_r		ankle_angle_r		subtalar_angle_r		mtp_angle_r		hip_flexion_l		hip_adduction_l		hip_rotation_l		knee_angle_l		ankle_angle_l		subtalar_angle_l		mtp_angle_l		lumbar_extension		lumbar_bending		lumbar_rotation		neck_flexion		neck_lateral_bending		neck_rotation		arm_flex_r		arm_add_r		arm_rot_r		elbow_flex_r		pro_sup_r		wrist_flex_r		wrist_dev_r		hand_finger_flex_r		arm_flex_l		arm_add_l		arm_rot_l		elbow_flex_l		pro_sup_l		wrist_flex_l		wrist_dev_l		hand_finger_flex_l		
0.317500		-0.007945		-8.221046		82.857856		0.047631		1.717787		1.265395		50.920689		2.323922		2.608415		-102.828649		-16.378043		-7.482672		-2.021123		65.655141		-6.023932		1.842324		-88.804385		-13.731792		-9.942280		9.202995		-38.454587		-3.185251		7.004833		18.858645		2.167751		-2.947036		71.922653		-31.568044		20.532119		53.240337		111.625164		17.031793		10.618370		-9.431377		69.565671		-30.962840		28.195335		52.447139		118.541721		-7.874274		5.280428		-4.543524		
0.321667		0.139388		-7.966258		82.971819		0.046984		1.713737		1.257315		51.119981		2.291454		2.190058		-101.403835		-16.768134		-7.352604		-1.988085		65.331910		-5.981942		2.137687		-87.248181		-14.130521		-9.502383		9.730100		-38.907971		-3.003280		6.938404		19.045263		2.077884		-2.801346		70.604864		-31.834204		19.854096		52.533590		111.567998		17.221353		10.943004		-9.267854		68.041221		-31.487131		27.818144		52.585883		118.936049		-7.649957		4.929438		-4.334006		
0.325833		0.448529		-7.663951		83.176681		0.046250		1.709513		1.248774		51.136259		2.321647		1.590593		-99.904653		-17.175106		-7.388006		-1.559069		64.951610		-6.011880		2.575199		-85.756359		-14.740463		-9.160939		12.249992		-39.375699		-2.589669		6.889932		18.939261		1.815679		-2.597518		69.103304		-31.980208		18.795569		52.017434		112.340724		17.825159		11.480200		-8.952372		66.010197		-31.760213		26.175326		52.861692		121.053064		-6.809911		4.378055		-3.439430		
0.330000		0.478095		-7.426210		83.163661		0.045715		1.704844		1.240335		51.360457		2.291877		1.397530		-98.503591		-17.830511		-6.941294		-1.604209		64.603058		-6.075411		2.645492		-84.238962		-15.419553		-8.843373		12.376350		-39.687741		-2.555438		6.908660		18.673722		1.708281		-2.582454		67.535214		-32.544632		18.405013		51.452194		112.114464		17.819342		11.409465		-9.008266		64.452291		-32.158450		26.083787		52.766224		121.143577		-6.866628		4.162198		-3.412794		
0.334167		0.678075		-7.217371		83.297475		0.045036		1.700221		1.231747		51.458407		2.289547		0.978455		-96.977903		-18.279242		-6.582440		-1.223446		64.222065		-6.117764		2.910577		-82.655883		-16.101069		-8.833591		13.885597		-40.012843		-2.273530		6.968435		18.589998		1.523988		-2.540284		65.773655		-32.920218		17.284860		50.999500		112.140700		18.162007		11.875212		-9.398420		62.562076		-32.115436		24.730804		52.475570		122.653138		-6.541984		3.366394		-2.908271		
0.338333		0.776703		-7.036758		83.283775		0.044596		1.695291		1.223193		51.616114		2.350465		0.785828		-95.445653		-18.864404		-6.021906		-1.196380		63.855429		-6.256158		2.996941		-81.114912		-16.696848		-8.756894		14.130778		-40.266727		-2.192005		7.035565		18.420017		1.460994		-2.516323		64.068416		-33.475109		16.697273		50.404298		111.801279		18.233852		11.766700		-9.556763		60.825491		-32.418636		24.353368		52.349404		122.838738		-6.626781		3.178020		-2.893236		
0.342500		0.914142		-6.883746		83.292529		0.044321		1.690169		1.214644		51.747301		2.439204		0.540869		-93.897492		-19.313376		-5.409090		-1.124716		63.499957		-6.432782		3.090334		-79.564703		-17.277222		-8.857324		14.386369		-40.520552		-2.102981		7.072759		18.318611		1.486672		-2.471283		62.286588		-33.993115		15.983637		49.869511		111.378119		18.359531		11.796055		-9.717349		58.940818		-32.900127		23.959825		52.458577		123.081152		-6.736245		2.889400		-2.884808		
0.346667		1.051192		-6.758696		83.285430		0.044097		1.684778		1.206093		51.870346		2.546454		0.343579		-92.320165		-19.715544		-4.739850		-1.019383		63.159086		-6.645237		3.140755		-78.030265		-17.862266		-9.100537		14.631150		-40.764470		-2.051219		7.053566		18.344873		1.638594		-2.381236		60.466258		-34.449872		15.214479		49.335820		110.846160		18.494920		11.877546		-9.887119		56.882344		-33.672899		23.697646		52.919927		123.252077		-6.945316		2.667434		-2.897422		
0.350833		1.175706		-6.640473		83.259014		0.043984		1.679188		1.197528		51.967945		2.662629		0.178189		-90.721974		-20.131689		-4.024633		-0.895066		62.803798		-6.900217		3.122883		-76.500273		-18.449879		-9.433683		14.831476		-41.014205		-2.053448		6.981083		18.439275		1.876401		-2.246316		58.601903		-34.847850		14.420165		48.791907		110.215766		18.573205		11.976811		-10.073347		54.681782		-34.660934		23.537658		53.615926		123.262821		-7.283884		2.524443		-2.914179		
0.355000		1.283846		-6.515353		83.227112		0.044045		1.673416		1.188908		52.027780		2.772637		0.022496		-89.118671		-20.554852		-3.303529		-0.762206		62.400532		-7.199284		3.021547		-74.948620		-18.993644		-9.801841		14.959745		-41.258488		-2.094486		6.884782		18.515740		2.131283		-2.093222		56.679594		-35.227837		13.661590		48.226609		109.542595		18.581671		12.096914		-10.261222		52.413042		-35.704903		23.415143		54.323184		123.131236		-7.698277		2.407077		-2.898954		
